<?xml version="1.0" encoding="UTF-8" standalone="no"?>
<!-- Created with Inkscape (http://www.inkscape.org/) -->

<svg
   version="1.1"
   id="svg1"
   width="2241.3313"
   height="858.13477"
   viewBox="0 0 2241.3313 858.13477"
   sodipodi:docname="430c.svg"
   inkscape:version="1.3.2 (091e20ef0f, 2023-11-25)"
   xmlns:inkscape="http://www.inkscape.org/namespaces/inkscape"
   xmlns:sodipodi="http://sodipodi.sourceforge.net/DTD/sodipodi-0.dtd"
   xmlns="http://www.w3.org/2000/svg"
   xmlns:svg="http://www.w3.org/2000/svg">
  <defs
     id="defs1" />
  <sodipodi:namedview
     id="namedview1"
     pagecolor="#ffffff"
     bordercolor="#000000"
     borderopacity="0.25"
     inkscape:showpageshadow="2"
     inkscape:pageopacity="0.0"
     inkscape:pagecheckerboard="0"
     inkscape:deskcolor="#d1d1d1"
     showgrid="false"
     inkscape:zoom="0.59377856"
     inkscape:cx="383.13947"
     inkscape:cy="374.71882"
     inkscape:window-width="1920"
     inkscape:window-height="1011"
     inkscape:window-x="0"
     inkscape:window-y="0"
     inkscape:window-maximized="1"
     inkscape:current-layer="layer1" />
  <g
     inkscape:groupmode="layer"
     id="layer1"
     inkscape:label="Layer 1"
     transform="translate(-29.334385,-144.08007)">
    <path
       style="display:inline;fill:#ffff00"
       d="m 115.08398,348 c 4.21761,-8.14219 1.5636,-25.10957 -4.27825,-27.3513 -3.67526,-1.41032 -4.30446,1.58522 -1.37563,6.5492 3.50524,5.94095 2.94779,13.83251 -1.39171,19.70201 -1.55492,2.10314 -2.44305,4.44534 -1.97361,5.2049 1.71235,2.77064 6.6131,0.54021 9.0192,-4.10481 z"
       id="path3" />
    <path
       id="path2"
       style="fill:#ff9955"
       d="M 281.27579 154.23632 C 277.32707 154.64139 273.40809 155.89698 269.85196 158.11132 C 264.00484 161.75223 262.52349 164.01554 246.63712 193.60937 C 237.30452 210.99453 226.54538 229.43321 222.72696 234.58398 C 215.29655 244.60705 198.13409 261.33398 195.2797 261.33398 C 186.99058 261.33398 187.44544 255.47445 196.33243 247.7832 C 200.18243 244.45121 206.29865 237.93949 209.92423 233.31249 L 216.51603 224.90038 L 204.78751 225.80077 C 163.95906 228.93917 122.7978 248.4627 98.951572 275.99999 C 82.973038 294.45178 76.215951 309.52828 75.189854 329.01366 C 74.075798 350.16936 67.650078 366.2444 50.808994 389.99999 C 45.610179 397.3333 41.350359 404.67147 41.344151 406.30663 C 41.330686 409.85278 45.215517 419.99999 46.586338 419.99999 C 47.116128 419.99999 48.379835 418.4475 49.394932 416.55077 C 52.045833 411.59753 60.46991 405.33398 64.478916 405.33398 C 66.448459 405.33398 68.467179 406.38085 69.22501 407.79687 C 70.291317 409.78927 69.639782 411.13017 65.824619 414.79687 C 60.515677 419.8992 57.332432 425.27143 57.332432 429.1289 C 57.332432 434.89553 75.313866 446.19077 89.527744 449.35351 C 94.195495 450.39214 102.29844 450.78887 110.85978 450.39648 C 125.94405 449.70514 132.49496 447.32131 145.63321 437.74609 C 154.06922 431.59787 164.79032 427.99999 174.67423 427.99999 C 180.92034 427.99999 182.94085 428.49445 183.58829 430.18163 C 185.11853 434.16937 182.05179 436.63099 174.52579 437.45702 C 166.67975 438.31817 160.60658 440.93987 145.33243 450.06444 C 133.12782 457.35533 129.71342 458.42109 112.33243 460.36913 C 96.785192 462.11165 95.695112 463.29587 102.55509 470.97851 C 106.4292 475.31722 106.49537 475.33452 120.87931 475.79687 C 136.2758 476.29176 150.46918 474.55139 163.14298 470.61523 L 170.95353 468.18944 L 181.14298 473.29882 C 194.21286 479.85138 203.08784 481.87478 218.05313 481.71484 C 227.41975 481.61473 232.3225 480.80434 240.05313 478.08007 C 245.52423 476.15207 252.84563 473.75134 256.32462 472.74413 C 270.37191 468.67727 283.30226 459.75904 289.35782 449.96093 C 293.58684 443.11824 297.86253 443.5136 303.20353 451.24023 C 304.94305 453.75673 305.0168 453.74917 306.54142 450.90038 C 308.6004 447.05312 308.67797 434.76451 306.68204 428.71679 C 304.41244 421.83986 306.62439 419.44991 314.28556 420.49999 C 320.59385 421.36464 329.2119 425.30725 331.91837 428.56835 C 334.51531 431.69746 335.25941 431.25384 338.99454 424.33398 C 344.24125 414.61368 346.66642 404.60194 346.66642 392.66601 C 346.66642 379.90749 344.23839 370.71698 337.5961 358.33007 C 333.0566 349.86455 332.90335 349.19079 335.0297 347.06444 C 336.80399 345.29017 338.08565 345.07925 340.97892 346.08202 C 343.78775 347.05553 345.96856 349.95182 350.12735 358.23437 C 361.49167 380.86718 361.62261 403.58613 350.52188 426.39843 C 346.36621 434.93847 337.73296 445.33398 334.79532 445.33398 C 333.90559 445.33398 330.72044 442.63396 327.7172 439.33398 C 324.71393 436.03398 321.82905 433.33398 321.30704 433.33398 C 320.78502 433.33398 320.06666 437.38398 319.71134 442.33398 C 318.97739 452.55866 315.6914 460.05042 308.39298 468.1289 C 304.44742 472.49615 302.81525 473.39673 299.44962 473.06835 C 295.74104 472.70651 295.29314 472.17055 294.92032 467.66601 C 294.69272 464.91601 294.1653 462.66601 293.74845 462.66601 C 293.3316 462.66601 290.63451 464.79422 287.75626 467.39452 C 284.878 469.99485 281.05608 472.79199 279.26212 473.60937 C 277.46816 474.42676 276.01068 475.44856 276.02384 475.88085 C 276.03694 476.31314 280.53382 478.08708 286.01603 479.82226 C 308.7102 487.00525 330.66158 503.63601 339.32462 520.21093 C 352.65054 545.70731 368.5391 566.90231 390.23087 588.11523 C 426.86386 623.93956 472.9522 650.44393 524.66642 665.42773 C 543.61626 670.9183 556.13173 676.69643 571.91642 687.24218 C 585.22026 696.13048 601.93946 711.92834 610.11563 723.33398 C 615.39725 730.70173 623.25632 745.6097 626.25235 753.94726 C 629.04482 761.71829 634.95658 873.83827 633.10978 883.99999 C 630.20319 899.99292 616.75124 916.87668 600.29923 925.18163 C 592.5272 929.10495 591.72413 929.24524 585.15274 927.83593 C 575.69735 925.80811 566.26782 927.17395 556.49649 931.98437 C 538.95561 940.61971 532.87398 959.32788 543.50235 971.95898 C 547.8542 977.13085 549.58289 977.11493 547.77188 971.91991 C 546.98957 969.67574 546.61661 964.61099 546.94376 960.66601 C 547.96664 948.33147 557.09853 937.94082 571.10978 933.16796 C 576.90426 931.19409 578.42376 931.10096 580.66642 932.57421 C 585.16669 935.53056 583.70074 937.82312 574.50431 942.21874 C 562.77024 947.8273 559.33243 952.61287 559.33243 963.33398 C 559.33243 969.40292 560.03063 972.31011 562.2211 975.38085 C 565.96722 980.63234 570.91719 983.22663 575.1586 982.1621 C 578.26712 981.38191 578.41587 981.00959 577.10392 977.24609 C 573.38671 966.58293 578.04731 953.34676 588.14493 945.89062 C 594.54396 941.16554 605.72208 938.06697 609.35587 940.01171 C 614.40705 942.71503 612.20342 946.79124 604.30118 949.35937 C 593.3978 952.90276 588.0004 959.25294 588.0004 968.5371 C 588.0004 976.1183 590.35587 979.51419 597.74259 982.58398 C 608.66549 987.12332 621.09852 988.65 632.21329 986.81444 C 651.21839 983.67582 677.60508 970.05971 691.92813 955.99999 C 703.30172 944.83552 709.16386 934.98024 715.72306 915.99999 C 726.56558 884.62509 774.93973 761.73628 779.23087 754.66601 C 792.08247 733.49106 796.53329 719.06145 796.50626 698.66601 C 796.49166 687.64831 795.87067 682.98245 793.5922 676.7578 C 787.38051 659.78791 775.17591 644.58063 759.78165 634.63085 C 742.06743 623.18159 722.97266 592.5767 714.97892 562.82421 C 711.92156 551.44483 711.53557 547.51989 711.5629 527.99999 C 711.5835 513.27341 712.21188 503.79657 713.46329 499.33398 C 715.25072 492.95992 715.53857 492.66601 720.0004 492.66601 L 724.66642 492.66601 L 724.29337 498.66601 C 724.08766 501.96599 723.78635 515.16668 723.6254 527.99999 C 723.36279 548.93815 723.65004 552.42826 726.41446 561.99999 C 734.35535 589.49473 751.81791 617.18127 767.81095 627.63085 C 777.7121 634.10009 791.56257 648.29308 797.10392 657.64843 C 799.54469 661.76919 802.91526 669.23346 804.59415 674.23632 L 807.64688 683.33398 L 820.15665 686.9746 C 851.25297 696.02597 911.56692 707.88461 950.66642 712.63476 C 1033.0748 722.64645 1121.385 722.15462 1199.3324 711.24999 C 1225.7015 707.56105 1253.8044 702.47235 1264.0004 699.54101 C 1272.5528 697.08218 1277.3771 696.67049 1297.3324 696.68749 C 1317.5154 696.70469 1322.0745 697.11204 1331.0883 699.70702 C 1347.687 704.4856 1356.7842 708.85997 1376.1059 721.35546 C 1422.089 751.09315 1462.7259 770.46025 1514.2289 787.18359 C 1577.3705 807.68599 1652.1913 818.03566 1716.6664 815.18554 C 1756.9828 813.40336 1766.8002 813.81682 1779.3324 817.82616 C 1809.8974 827.60462 1829.8676 850.43174 1829.5141 875.18554 C 1829.2087 896.57398 1824.391 909.31438 1812.0356 921.40429 C 1801.6089 931.6068 1794.9929 934.76803 1787.6313 933.06444 C 1769.8406 928.94749 1750.1624 937.30511 1742.559 952.20898 C 1737.7461 961.64293 1740.3553 974.82156 1748.0434 979.91015 C 1751.0444 981.89643 1751.1471 981.86907 1750.1059 979.33398 C 1748.1212 974.50129 1747.6634 964.39159 1749.2172 959.68359 C 1753.622 946.33687 1775.731 932.21959 1783.3598 937.8828 C 1786.9581 940.55399 1784.7461 944.02627 1777.766 946.66601 C 1769.5669 949.76672 1765.6017 952.91361 1762.684 958.6328 C 1758.2583 967.30799 1759.5424 975.88044 1766.3344 982.99999 C 1768.976 985.76905 1771.0991 986.66601 1775.0063 986.66601 C 1779.8056 986.66601 1780.1011 986.44892 1779.0902 983.66601 C 1778.4907 982.01601 1778.0004 977.01502 1778.0004 972.55077 C 1778.0004 965.73243 1778.6298 963.52438 1781.9359 958.75585 C 1788.4986 949.29045 1806.3331 941.18306 1811.3793 945.37109 C 1815.297 948.62241 1813.6493 951.68058 1806.7426 953.9746 C 1792.5058 958.70332 1786.2375 969.01555 1790.6098 980.51562 C 1793.1614 987.22684 1806.4593 991.78619 1823.8422 991.91015 C 1834.171 991.98385 1838.3529 991.33876 1847.8422 988.20312 C 1854.1625 986.1146 1862.9324 983.35248 1867.3324 982.06444 C 1887.0483 976.29294 1903.9811 962.61666 1912.1801 945.84374 L 1916.6664 936.66601 L 1916.6156 833.33398 L 1916.5629 729.99999 L 1913.5317 723.18944 C 1907.6762 710.0331 1894.8331 701.34005 1876.3559 698.02538 C 1864.1137 695.82923 1854.1306 691.91835 1833.3324 681.16796 C 1783.8161 655.57336 1745.0418 611.70092 1730.2172 564.49804 C 1723.1107 541.87066 1720.904 518.89401 1723.2563 491.99999 C 1724.4028 478.89298 1721.7895 460.51657 1716.4418 444.07616 C 1696.1339 381.64333 1635.4731 332.36185 1559.7953 316.8164 C 1554.4078 315.70972 1532.5991 312.68445 1511.3324 310.09569 C 1396.7851 296.15203 1297.6207 288.08667 1170.6664 282.38476 C 1115.2975 279.89796 913.80594 280.07761 855.99845 282.66601 C 792.81617 285.49505 749.85501 285.33129 731.99845 282.19335 C 708.24399 278.019 693.33179 273.6243 677.35196 266.08593 C 655.60171 255.8254 640.84111 251.89488 616.61173 249.91405 C 603.76272 248.86362 581.9968 251.02177 567.33243 254.80077 C 560.55658 256.54692 550.34321 257.80984 539.33243 258.26171 C 517.96995 259.1384 504.55209 256.88969 482.66642 248.76366 C 445.34988 234.9083 408.08882 227.4761 367.45353 225.7832 L 346.24063 224.89843 L 347.22306 228.11523 C 349.54598 235.73097 349.67499 257.93108 347.44767 266.67577 C 344.66264 277.60999 338.71534 290.42522 332.49259 298.90234 C 328.27707 304.645 327.13988 305.42633 323.51017 305.07226 C 317.83746 304.51891 317.47177 301.0408 322.36563 294.19335 C 332.86414 279.50395 337.69502 264.69642 337.63321 247.40038 C 337.57861 232.13115 335.33423 225.31088 320.78556 196.20116 C 314.68273 183.99035 309.23149 172.49934 308.67032 170.66601 C 305.24123 159.46317 293.12198 153.02111 281.27579 154.23632 z M 150.5297 172.33398 C 146.90631 172.25622 144.0004 174.52528 144.0004 178.10741 C 144.0004 183.13626 151.1045 203.62208 156.70743 214.74804 C 160.9051 223.08346 161.86279 224.16223 164.41642 223.41991 C 166.0202 222.95369 172.43308 221.39878 178.66642 219.96484 C 184.89973 218.53088 196.12951 216.96172 203.62149 216.47851 C 211.26862 215.9853 216.91468 215.06575 216.49259 214.3828 C 215.48982 212.7603 158.96185 175.35151 154.31095 173.23241 C 153.02492 172.64646 151.73749 172.3599 150.5297 172.33398 z M 2210.9535 196.72265 C 2202.5569 196.6178 2193.8694 198.33609 2185.6332 202.23241 C 2176.4191 206.59138 2153.6153 228.32021 2141.8363 243.96679 C 2132.4339 256.45657 2122.1341 275.52435 2116.9692 289.99999 C 2110.6982 307.5748 2108.7157 320.31268 2108.7719 342.66601 C 2108.8429 370.94483 2112.5868 386.16439 2127.1742 417.46679 C 2156.2537 479.86692 2136.8694 549.92813 2078.1684 594.5996 C 2067.8861 602.42442 2063.8301 604.58179 2052.0004 608.51757 C 2044.3004 611.07937 2032.2991 614.17347 2025.3324 615.39257 C 2009.0085 618.24912 1978.1718 618.25854 1962.3207 615.4121 C 1928.8191 609.39615 1895.4197 592.97343 1876.4418 573.18554 C 1849.0429 544.6172 1828.0138 506.8701 1815.2445 463.33398 C 1803.6481 423.79594 1777.0302 389.36223 1737.4574 362.70507 C 1709.3797 343.7911 1663.8092 328.11958 1630.2035 325.8203 L 1619.3324 325.07616 L 1632.6664 332.69726 C 1654.1735 344.99049 1666.3512 354.20475 1682.7504 370.59374 C 1716.5808 404.40313 1734.1392 442.96197 1735.3031 485.99999 C 1735.895 507.88892 1742.9265 529.08505 1758.8715 557.05077 C 1799.693 628.64726 1882.8108 679.15148 1978.6664 690.60351 C 1994.5045 692.49571 2051.7983 691.3376 2067.3324 688.81054 C 2088.6175 685.34793 2095.522 683.13337 2115.3324 673.41796 C 2144.6681 659.03141 2166.4494 643.28393 2186.1781 622.19726 C 2225.2064 580.48292 2244.0805 529.53579 2239.8774 477.24609 C 2237.7958 451.35011 2231.4706 430.9403 2216.35 401.33398 C 2207.0935 383.20969 2203.8793 370.41646 2203.8793 351.70507 C 2203.8793 321.43114 2213.9329 298.78016 2239.059 272.4453 C 2255.6269 255.0804 2258.5953 249.74528 2258.6371 237.26171 C 2258.7159 213.75448 2236.1435 197.0372 2210.9535 196.72265 z M 109.30704 320.30077 C 109.73061 320.3153 110.23083 320.42807 110.80509 320.64843 C 116.64693 322.89016 119.30199 339.85781 115.08438 347.99999 C 112.67829 352.64501 107.7772 354.8761 106.06485 352.10546 C 105.59541 351.3459 106.48259 349.00352 108.03751 346.90038 C 112.37701 341.03089 112.93532 333.1382 109.43009 327.19726 C 106.95889 323.0089 107.01975 320.22231 109.30704 320.30077 z M 349.8129 558.87109 C 349.65174 558.61707 346.92835 560.18862 343.76017 562.36327 C 340.59197 564.53794 333.09017 568.78257 327.09024 571.79491 C 317.27026 576.7252 310.94936 578.39468 263.75821 588.52929 C 234.92487 594.72143 206.53306 600.49575 200.66642 601.36132 C 177.02557 604.8493 150.61452 616.11164 123.61368 634.21679 C 105.49918 646.3633 102.17951 649.71771 96.767979 661.34374 C 89.327516 677.32869 95.531122 697.61451 109.8461 704.11523 C 116.42086 707.10093 121.23738 707.2997 127.15274 704.82812 C 132.01415 702.79689 136.97091 697.23986 138.16446 692.48437 C 138.62435 690.65204 137.80137 687.05523 136.13517 683.61327 C 131.32896 673.68498 131.73521 673.29883 147.55509 672.73241 C 157.35173 672.38164 160.12969 672.79427 166.26993 675.50976 C 174.38386 679.09812 188.85486 683.31291 200.0004 685.33398 C 204.09857 686.07712 240.12478 689.09256 280.05899 692.03515 C 322.55849 695.16675 356.25959 698.25092 361.33243 699.4746 C 366.14207 700.63479 379.03937 701.88229 390.31095 702.27734 C 421.06242 703.35511 441.64827 698.82281 462.22696 686.44335 C 469.63058 681.9896 486.66642 666.28085 486.66642 663.90819 C 486.66642 663.21317 484.11707 661.64982 481.0004 660.43359 C 460.66152 652.49646 426.16621 632.07707 404.0004 614.85351 C 386.86272 601.53696 357.8937 571.60877 349.8129 558.87109 z M 80.967197 672.00585 L 75.014072 679.66991 C 66.807051 690.23487 59.301267 703.16056 53.31876 717.0371 C 46.289019 733.34272 45.908646 739.97616 51.611729 746.7539 C 58.3582 754.77162 73.346615 758.44228 83.580479 754.58398 C 92.340927 751.28115 99.708006 739.94604 97.865635 732.60546 C 97.018879 729.2317 100.31851 725.33398 104.01993 725.33398 C 110.37825 725.33398 112.66508 737.56666 108.13321 747.33398 C 102.57841 759.30602 89.767751 766.82369 74.523838 767.05859 C 69.468539 767.13649 65.332432 767.4106 65.332432 767.66796 C 65.332432 769.32915 75.840949 771.99519 82.291416 771.97069 C 95.193207 771.92171 105.30233 765.45193 109.98087 754.25194 C 111.88784 749.68685 112.53787 749.21397 116.38517 749.58593 C 120.23164 749.95781 120.70153 750.47372 121.01212 754.66601 C 121.71956 764.215 110.13881 777.03419 97.830479 780.32616 C 88.739743 782.75756 90.716508 784.86215 102.38712 785.17773 C 105.70805 785.26753 110.24421 784.24215 113.20353 782.73241 C 126.13264 776.13648 135.95978 758.78648 134.16837 745.71679 C 132.66033 734.71442 141.13977 724.03053 155.55704 718.76952 C 159.83382 717.20889 164.78154 715.1967 166.55118 714.29882 C 170.80513 712.14046 174.65631 705.65211 174.66251 700.63085 C 174.66551 698.41069 175.5369 695.35177 176.60001 693.83398 C 178.46196 691.17567 178.1254 690.92038 167.46524 686.87109 C 161.37863 684.55907 154.87961 682.66601 153.02188 682.66601 C 149.81677 682.66601 149.61595 683.10177 149.10196 691.17382 C 148.43822 701.59758 144.44646 707.56317 135.03556 712.19726 C 126.34969 716.47432 111.1679 716.56491 103.24259 712.38671 C 91.916796 706.41581 83.475436 693.34967 81.814854 679.22069 L 80.967197 672.00585 z M 1297.3324 706.03124 C 1280.005 706.00434 1275.0506 706.4681 1266.6664 708.89843 C 1248.4256 714.18588 1196.2489 722.08555 1153.3324 726.05663 C 1121.4177 729.00974 1050.6199 730.0537 1016.2231 728.07812 C 1000.5789 727.17959 987.47625 726.7468 987.10587 727.11718 C 986.21443 728.00863 1011.8783 736.25857 1028.6664 740.47655 C 1068.2734 750.42778 1097.1404 753.52107 1147.3324 753.19335 C 1180.3873 752.97753 1186.1951 753.26265 1198.0004 755.68749 C 1244.7284 765.28548 1287.1543 790.23713 1299.4223 815.33398 C 1302.9914 822.63519 1303.3324 824.55686 1303.3324 837.33398 C 1303.3324 850.1103 1302.9925 852.03321 1299.4242 859.33398 C 1291.0083 876.55334 1263.6518 896.57054 1235.3324 906.23241 C 1213.8381 913.56584 1187.4927 917.1023 1174.4399 914.40624 C 1158.5104 911.11609 1140.8966 917.4569 1132.5629 929.48241 C 1127.3266 937.03841 1126.4661 948.53603 1130.6313 955.27538 C 1132.2487 957.89236 1134.7094 960.64246 1136.1 961.38671 C 1138.4002 962.61774 1138.5105 962.42797 1137.3149 959.28319 C 1135.2611 953.88119 1135.8193 943.86021 1138.5043 937.94921 C 1144.8341 924.01442 1169.1439 911.96649 1172.6254 921.03905 C 1173.6097 923.60407 1169.1061 927.99999 1165.4945 927.99999 C 1161.9995 927.99999 1153.8711 934.14918 1150.8031 939.11327 C 1143.7353 950.54927 1151.033 967.99999 1162.8832 967.99999 C 1167.7541 967.99999 1167.8872 967.8783 1166.6332 964.58007 C 1164.4685 958.8867 1165.1109 948.3295 1167.9613 942.74218 C 1171.2875 936.22231 1178.7987 929.99396 1186.4965 927.37109 C 1194.1212 924.77309 1197.8913 924.7934 1200.0922 927.4453 C 1202.6464 930.52301 1200.3932 933.19811 1192.8266 936.0703 C 1182.3033 940.06486 1177.3324 946.25185 1177.3324 955.35546 C 1177.3324 961.95309 1179.1762 964.85809 1185.3578 968.01171 C 1192.9705 971.89543 1199.1172 973.05416 1212.6664 973.15624 C 1221.6549 973.22394 1226.5074 972.56082 1232.0004 970.51562 C 1236.0337 969.01388 1246.5324 966.99422 1255.3324 966.02734 C 1264.1324 965.06044 1275.2337 963.34486 1280.0004 962.21484 C 1299.8011 957.52065 1320.4846 946.18907 1334.3344 932.44726 C 1340.7031 926.12817 1352.703 918.70405 1405.2856 888.55468 C 1476.6248 847.65067 1476.0056 848.12955 1477.0961 833.05273 C 1477.5569 826.68307 1477.0422 824.11679 1474.1527 818.33593 C 1472.2274 814.4847 1469.2302 804.25835 1467.4926 795.61132 C 1465.7551 786.96428 1464.1096 779.73506 1463.8344 779.54687 C 1463.5593 779.35868 1455.2923 775.64675 1445.4633 771.29687 C 1423.2052 761.44634 1393.6271 745.1342 1370.4164 729.91015 C 1339.9407 709.92094 1328.1826 706.07918 1297.3324 706.03124 z " />
    <path
       style="fill:#000000"
       d="m 1806.5495,1001.3428 c -2.6311,-0.6662 -7.8732,-2.42903 -11.6492,-3.91737 -5.2462,-2.06786 -7.676,-2.39782 -10.3029,-1.39908 -5.8254,2.21478 -22.2829,1.52409 -31.457,-1.32018 -22.5035,-6.97689 -31.9182,-27.61208 -21.7071,-47.57818 4.7206,-9.23041 14.4046,-17.56784 25.4418,-21.90399 6.3722,-2.50342 10.4837,-3.08098 22.5695,-3.17045 14.0245,-0.10383 14.9955,-0.29251 19.0467,-3.7014 11.4128,-9.60323 16.1134,-18.69392 17.8888,-34.59595 1.1303,-10.12341 0.9952,-13.16801 -0.8429,-18.99916 -6.1778,-19.5982 -23.7042,-33.87093 -47.7662,-38.89862 -8.4883,-1.77362 -13.6281,-1.83011 -39.1531,-0.43034 -74.4983,4.08542 -154.7755,-6.92661 -227.4028,-31.194 -12.035,-4.02131 -22.0379,-7.16292 -22.2287,-6.98136 -1.0298,0.97969 4.4404,22.29593 7.0455,27.45534 1.6778,3.32277 3.4664,8.81478 3.9747,12.20448 1.8035,12.02638 -5.5639,27.86209 -16.3762,35.19962 -2.73,1.85271 -31.3455,18.36416 -63.5898,36.6921 -49.6859,28.24182 -59.954,34.59707 -67.3334,41.67477 -10.8453,10.40191 -18.3056,15.51918 -32.3613,22.19775 -15.1912,7.2181 -31.8203,11.70579 -49.4397,13.34231 -8.7814,0.81563 -18.1933,2.58581 -22.9062,4.30816 -6.7626,2.47145 -10.7841,2.92273 -26,2.91773 -16.2175,-0.005 -18.9046,-0.35282 -27.1351,-3.509 -7.4923,-2.8731 -9.8432,-3.25621 -13.0729,-2.13034 -2.1658,0.755 -9.4886,1.12995 -16.2729,0.83323 -14.9821,-0.65526 -24.6276,-4.74479 -32.628,-13.83367 -24.304,-27.61079 10.0872,-67.8063 52.077,-60.86629 16.6369,2.74972 42.876,-1.64908 64.6733,-10.84201 21.6283,-9.12166 42.8974,-26.03399 48.4803,-38.54962 4.2725,-9.57788 4.3868,-24.32453 0.2586,-33.3483 -7.9858,-17.45567 -35.2271,-36.75781 -67.8152,-48.05122 -23.3223,-8.08235 -33.2074,-9.22416 -82.5651,-9.53695 -47.7756,-0.30277 -61.0341,-1.52369 -95.7302,-8.81546 -29.269,-6.15118 -58.2291,-15.41332 -84.2698,-26.95147 -8.8388,-3.91631 -14.77936,-5.33357 -34.66667,-8.27054 -25.01688,-3.69451 -66.90658,-11.76206 -72.66666,-13.9949 -1.83334,-0.71067 -10.83334,-3.13884 -20,-5.39593 -9.16667,-2.25709 -17.64453,-4.39405 -18.8397,-4.74879 -1.82423,-0.54147 -2.32864,1.01991 -3.14247,9.72731 -1.79871,19.24487 -8.18636,37.50893 -18.74526,53.59788 -3.28028,4.99826 -56.66427,141.47636 -63.31907,161.87748 -2.11159,6.47335 -6.06065,15.77335 -8.77568,20.66667 -6.42228,11.57493 -24.85861,30.05229 -37.17782,37.26055 -11.79949,6.90416 -34.24981,15.93963 -44.29591,17.82756 -11.3836,2.13929 -28.60541,0.64798 -39.96746,-3.46095 -8.6481,-3.12746 -10.20769,-3.31667 -15.77776,-1.91411 -15.70945,3.95569 -38.60787,-2.51791 -47.17706,-13.33739 -5.40611,-6.82578 -6.78181,-10.8768 -6.78181,-19.97039 0,-9.98679 4.67006,-19.4661 13.50234,-27.40707 10.22868,-9.19647 18.73025,-11.98292 37.16432,-12.18088 17.74058,-0.19051 20.87181,-1.33187 30.74762,-11.20768 7.29171,-7.29171 11.36682,-14.57342 13.24583,-23.66866 1.97981,-9.58314 -4.24331,-120.21927 -7.21744,-128.31345 -7.90223,-21.50613 -26.87613,-44.53773 -49.53318,-60.12619 -8.37244,-5.76039 -27.88572,-15.32228 -35.24283,-17.26967 -3.3,-0.87349 -11.47023,-3.33376 -18.15608,-5.46727 l -12.15608,-3.87911 -11.17725,11.11904 c -11.37202,11.31278 -20.54435,17.48524 -35.55515,23.92661 -24.06872,10.32827 -60.13164,12.74174 -92.62616,6.19891 -13.04792,-2.62722 -126.059,-11.46185 -156.15371,-12.2073 -16.07637,-0.39821 -16.04862,-0.41208 -17.52005,8.76075 -1.11557,6.9544 -9.6218,16.04966 -17.76071,18.99058 -19.52235,7.05423 -21.82662,9.61866 -22.17511,24.67883 -0.1995,8.62177 -0.93981,11.73495 -4.5199,19.00714 -4.82766,9.80636 -14.01117,18.92759 -23.85439,23.69261 -12.5213,6.06145 -31.025961,3.0564 -40.117195,-6.51482 -1.95885,-2.06227 -6.05747,-4.48297 -9.108046,-5.37933 -3.050575,-0.89636 -8.450575,-3.62621 -12,-6.06634 -5.334071,-3.66702 -7.65816,-6.72845 -13.398366,-17.64914 -10.167061,-19.34276 -9.718548,-25.99242 3.546132,-52.57504 19.557954,-39.19443 53.489475,-71.94953 97.288725,-93.91568 19.39257,-9.72574 35.23119,-15.06837 54.11001,-18.2522 33.5678,-5.66108 114.35796,-23.93946 121.25368,-27.43306 7.22903,-3.66247 23.41299,-13.62991 23.41299,-14.41969 0,-0.26257 -4.28339,-8.02136 -9.51864,-17.24176 -13.73065,-24.18258 -26.52045,-35.11047 -50.94641,-43.52975 -15.76167,-5.43281 -25.27146,-6.2162 -34.33828,-2.82867 -10.69168,3.9946 -26.47682,6.15213 -38.32578,5.2384 -10.90768,-0.84114 -28.81902,-5.88238 -35.52676,-9.9992 -3.87398,-2.37761 -4.25913,-2.37619 -13.33334,0.0492 -13.51547,3.61248 -46.72186,5.48922 -54.69064,3.09097 -11.442165,-3.44359 -19.320153,-12.28686 -19.320153,-21.68743 0,-3.56875 -0.630113,-4.08396 -7.666667,-6.26863 -11.476674,-3.56322 -21.043546,-9.52526 -32.114509,-20.01364 -11.218684,-10.62833 -17.549334,-21.7414 -17.551106,-30.8099 -8.92e-4,-4.56839 1.466089,-7.40985 9.688734,-18.76651 5.329382,-7.36065 11.593216,-16.9542 13.919631,-21.319 4.77672,-8.96205 11.444501,-30.53995 10.429122,-33.75015 -0.367789,-1.16279 -0.09344,-7.14972 0.609675,-13.30429 3.508376,-30.71007 31.969939,-64.37191 71.360613,-84.3991 l 13.58555,-6.90722 -5.03673,-10.75177 c -6.99538,-14.93289 -12.16326,-30.92815 -12.37722,-38.30915 -0.1432,-4.93991 0.5073,-6.96976 3.15291,-9.8385 6.83188,-7.4081 16.60617,-9.1516 25.94917,-4.62873 3.00178,1.45313 18.92993,11.61441 35.3959,22.58062 16.46597,10.9662 30.01337,19.82728 30.10534,19.69127 0.092,-0.13601 5.99095,-11.18281 13.10885,-24.54844 14.05858,-26.39849 18.57312,-31.78962 29.83371,-35.62648 7.79606,-2.65639 22.08466,-2.65639 29.88072,0 12.03409,4.10042 15.56315,8.66677 30.86674,39.93925 l 14.02272,28.65505 12.41842,0.005 c 39.62286,0.0145 81.20027,7.52421 127.08509,22.95399 27.88489,9.37691 28.07127,9.41816 45.33334,10.03537 15.79548,0.56476 19.16692,0.23567 38,-3.70922 42.60929,-8.9252 80.91526,-4.74926 116.66666,12.71844 31.75163,15.51347 66.94828,20.0814 132,17.13137 83.19428,-3.77277 144.15463,-4.82772 233.33337,-4.03792 49.8666,0.44163 104.4666,1.41241 121.3333,2.15727 131.6693,5.81478 222.4962,13.19786 346.4027,28.15816 35.3636,4.26974 47.7334,6.33372 62.9057,10.4962 6.8496,1.87914 15.6151,2.82488 30.7997,3.32305 92.4141,3.03192 169.9144,47.28197 205.8655,117.54228 2.9719,5.80789 9.0134,21.70699 13.4257,35.33134 11.9098,36.77508 25.1225,61.55338 47.58,89.22845 5.0581,6.23333 12.757,14.2278 17.1087,17.76549 37.1573,30.20739 92.661,41.1706 142.6628,28.17906 17.8918,-4.64868 24.7731,-8.24363 39.8191,-20.80225 34.7813,-29.03137 51.7566,-63.79963 51.6603,-105.80897 -0.045,-19.53593 -3.7523,-35.52513 -12.8291,-55.32683 -8.8998,-19.4156 -11.2142,-25.74285 -15.1079,-41.30143 -3.0741,-12.28333 -3.5179,-16.78883 -3.5501,-36.0384 -0.041,-24.33207 1.7883,-35.84213 8.899,-56 9.4452,-26.77583 23.15,-47.71584 46.2498,-70.66667 18.3359,-18.21776 26.864,-23.81489 41.5655,-27.28029 16.5018,-3.88974 31.8353,-2.20828 47.4843,5.20712 18.6571,8.84082 29.7219,24.85636 29.7239,43.02315 0,15.84527 -3.252,22.36922 -19.0836,38.26363 -19.6156,19.69341 -28.1241,33.79034 -33.8405,56.06676 -1.5144,5.90154 -1.8735,12.25054 -1.3951,24.66667 0.7185,18.64775 3.916,30.29624 12.0831,44.01857 17.8436,29.98073 26.8637,71.3771 23.4787,107.75207 -6.8842,73.97671 -54.3906,136.87882 -133.2415,176.42218 -20.8428,10.45256 -35.0941,14.02786 -69.1839,17.35655 -19.688,1.92243 -67.0518,0.74533 -84.7391,-2.10596 -69.7189,-11.23906 -128.3838,-39.02665 -173.2382,-82.05712 -20.0864,-19.2696 -36.2319,-40.18534 -47.7118,-61.80846 -6.0898,-11.47053 -6.4806,-9.24062 -1.208,6.89414 12.503,38.26063 40.625,73.85855 77.6609,98.30632 20.7986,13.72935 46.8539,25.26774 64.197,28.42916 17.2528,3.14496 33.4242,14.85626 40.55,29.3662 l 3.6731,7.47931 1.0446,97.33333 c 0.7137,66.49089 0.5994,100.50208 -0.3606,107.33334 -4.1127,29.26608 -28.1617,53.53961 -62.0174,62.59633 -5.1333,1.37322 -12.9333,3.84296 -17.3333,5.48832 -6.2073,2.32114 -11.4361,3.08244 -23.3333,3.39714 -8.4334,0.2232 -17.4861,-0.1394 -20.1172,-0.8057 z m 41.2923,-13.14012 c 6.3203,-2.08852 15.0915,-4.85116 19.4915,-6.1392 19.7159,-5.77152 36.6482,-19.44635 44.8472,-36.21929 l 4.4862,-9.17752 -0.052,-103.33334 -0.052,-103.33333 -3.0309,-6.80986 c -5.8555,-13.15638 -18.6981,-21.84966 -37.1753,-25.16433 -12.2422,-2.19615 -22.2259,-6.10817 -43.0241,-16.85858 -49.5165,-25.59466 -88.2913,-69.46559 -103.1159,-116.66857 -7.1065,-22.62742 -9.3123,-45.60458 -6.96,-72.49866 1.1465,-13.10703 -1.4665,-31.48414 -6.8142,-47.92457 -20.3079,-62.43297 -80.9697,-111.71432 -156.6477,-127.25981 -5.3875,-1.10668 -27.1955,-4.13022 -48.4622,-6.71898 -114.5475,-13.9437 -213.7121,-22.01052 -340.6666,-27.71245 -55.3691,-2.4868 -256.85909,-2.30592 -314.6667,0.28248 -63.1824,2.82906 -106.1434,2.66532 -124,-0.47262 -23.7545,-4.17437 -38.66819,-8.57057 -54.64804,-16.10896 -21.75029,-10.26055 -36.51007,-14.1901 -60.73951,-16.17093 -12.84903,-1.05045 -34.61473,1.10811 -49.27912,4.88713 -6.77587,1.74615 -16.9892,3.00827 -28,3.46014 -21.36252,0.87669 -34.78093,-1.37253 -56.66666,-9.49856 -37.3166,-13.8554 -74.57693,-21.28736 -115.21232,-22.98028 l -21.21232,-0.88373 0.98132,3.21723 c 2.32294,7.61576 2.45267,29.81431 0.22533,38.55902 -2.78503,10.93424 -8.73215,23.74999 -14.95492,32.22711 -4.21552,5.74268 -5.3529,6.52391 -8.98263,6.16984 -5.67271,-0.55335 -6.03881,-4.03209 -1.14493,-10.87956 10.49853,-14.68944 15.32983,-29.496 15.26802,-46.79206 -0.0546,-15.26927 -2.2987,-22.08912 -16.84741,-51.1989 -6.10283,-12.21085 -11.55519,-23.70154 -12.11636,-25.53487 -4.57214,-14.93715 -24.59317,-21.41294 -38.81771,-12.55556 -5.84714,3.64091 -7.32737,5.90447 -23.21378,35.49836 -9.33262,17.3852 -20.09257,35.82374 -23.91099,40.97451 -7.43043,10.02309 -24.59349,26.74935 -27.4479,26.74935 -8.28914,0 -7.83375,-5.85828 1.05326,-13.54955 3.85,-3.33199 9.96638,-9.84389 13.59196,-14.47089 l 6.59196,-8.41272 -11.7283,0.90151 C 163.95952,228.94008 122.79879,248.46265 98.952522,276 82.973956,294.45183 76.216054,309.52865 75.189955,329.01407 74.075897,350.16981 67.649439,366.24435 50.808323,390 45.609496,397.33333 41.35083,404.67119 41.344622,406.30635 41.331157,409.8525 45.21531,420 46.586133,420 c 0.52979,0 1.793789,-1.55187 2.808888,-3.4486 2.650907,-4.95326 11.074259,-11.21807 15.083273,-11.21807 1.969547,0 3.989014,1.04849 4.746847,2.46451 1.066309,1.99242 0.414988,3.3333 -3.400181,7 -5.308954,5.10235 -8.491627,10.47369 -8.491627,14.33116 0,5.76665 17.980017,17.06198 32.193925,20.22472 4.667759,1.03863 12.771992,1.43452 21.333332,1.04213 15.08431,-0.69134 21.63474,-3.0742 34.77303,-12.64944 C 154.06965,431.59819 164.79127,428 174.6752,428 c 6.24613,0 8.26474,0.49405 8.91218,2.18123 1.53024,3.98774 -1.53521,6.44886 -9.06123,7.27489 -7.84606,0.86115 -13.91865,3.48394 -29.19282,12.60853 -12.20463,7.29089 -15.61897,8.35711 -33,10.30515 -15.547272,1.74252 -16.638558,2.9265 -9.77857,10.60916 3.87413,4.33873 3.93996,4.35604 18.32392,4.81839 15.39653,0.49489 29.59138,-1.24533 42.2652,-5.18151 l 7.81054,-2.42577 10.18946,5.10848 c 13.0699,6.55258 21.94333,8.57592 36.90866,8.41598 9.36662,-0.10011 14.26935,-0.91001 22,-3.63428 5.4711,-1.928 12.7939,-4.32954 16.27289,-5.33675 14.04731,-4.06688 26.97617,-12.98395 33.03175,-22.78208 4.22902,-6.84271 8.50511,-6.44776 13.84611,1.27887 1.73954,2.51652 1.81362,2.50898 3.33824,-0.33981 2.059,-3.84728 2.13733,-16.13681 0.1414,-22.18455 -2.2696,-6.87695 -0.0582,-9.2669 7.60297,-8.21682 6.30831,0.86465 14.92675,4.80901 17.63322,8.07011 2.59694,3.12911 3.34047,2.68399 7.0756,-4.23589 5.24671,-9.72032 7.67195,-19.73071 7.67195,-31.66666 0,-12.75854 -2.42791,-21.94974 -9.0702,-34.33667 -4.53952,-8.46554 -4.69282,-9.13841 -2.56647,-11.26476 1.77429,-1.77429 3.05577,-1.98612 5.94904,-0.98335 2.80885,0.97351 4.98875,3.86936 9.14756,12.15193 11.36434,22.63287 11.49611,45.35285 0.39536,68.16519 -4.15569,8.54006 -12.78912,18.93432 -15.72676,18.93432 -0.88973,0 -4.07491,-2.7 -7.07817,-6 -3.00327,-3.3 -5.88759,-6 -6.4096,-6 -0.52202,0 -1.23984,4.05 -1.59516,9 -0.73395,10.2247 -4.02177,17.71655 -11.32021,25.79505 -3.94556,4.36727 -5.57662,5.2683 -8.94225,4.93992 -3.70858,-0.36184 -4.15748,-0.89707 -4.5303,-5.40163 -0.2276,-2.75 -0.75488,-5 -1.17173,-5 -0.41685,0 -3.11284,2.12754 -5.99109,4.72786 -2.87826,2.60033 -6.70098,5.39664 -8.49494,6.21402 -1.79396,0.81739 -3.25098,1.83985 -3.23782,2.27214 0.0131,0.43229 4.50936,2.20568 9.99157,3.94086 22.69423,7.18301 44.64555,23.81451 53.30861,40.38947 13.32594,25.49644 29.21525,46.69083 50.90706,67.90379 36.63307,35.82441 82.72118,62.32949 134.4355,77.31331 18.94988,5.49059 31.46443,11.26834 47.24914,21.81411 13.30388,8.88832 30.02426,24.68544 38.20045,36.0911 5.28162,7.36777 13.1396,22.27686 16.13565,30.61444 2.79247,7.77105 8.7049,119.89049 6.85808,130.05223 -2.90659,15.99295 -16.35869,32.8773 -32.81074,41.18227 -7.77205,3.92332 -8.57428,4.06393 -15.14567,2.65462 -9.45541,-2.02782 -18.88575,-0.66301 -28.6571,4.14741 -17.54092,8.63536 -23.62177,27.34317 -12.99338,39.97429 4.35185,5.17189 6.08011,5.15612 4.2691,-0.0389 -0.78233,-2.24419 -1.15475,-7.30808 -0.8276,-11.25308 1.02288,-12.33456 10.15407,-22.72498 24.16534,-27.49784 5.7945,-1.97387 7.31407,-2.06852 9.55673,-0.59527 4.50029,2.95635 3.03485,5.25056 -6.1616,9.6462 -11.73409,5.60856 -15.17174,10.39254 -15.17174,21.11367 0,6.06896 0.69699,8.97707 2.88748,12.04781 3.74612,5.25149 8.69644,7.84637 12.93787,6.78184 3.10852,-0.78019 3.25626,-1.15383 1.94429,-4.91735 -3.71721,-10.66318 0.94344,-23.89859 11.04108,-31.35475 6.39903,-4.72508 17.57865,-7.82323 21.21244,-5.87849 5.0512,2.70332 2.84645,6.77977 -5.05581,9.3479 C 593.39728,952.90374 588,959.25354 588,968.53772 c 0,7.58122 2.3553,10.97735 9.74204,14.04714 10.92292,4.53936 23.35679,6.06486 34.47158,4.2293 19.00514,-3.13864 45.39076,-16.75442 59.71385,-30.81416 11.37361,-11.16449 17.23637,-21.01971 23.79557,-40 10.84254,-31.37496 59.21645,-154.26304 63.50759,-161.33333 12.85162,-21.17499 17.30316,-35.60452 17.27613,-56 -0.0146,-11.01772 -0.6353,-15.68489 -2.91377,-21.90954 -6.21169,-16.96993 -18.41734,-32.17744 -33.81162,-42.12724 -17.71426,-11.44928 -36.80904,-42.05216 -44.8028,-71.80471 -3.05736,-11.3794 -3.44233,-15.30524 -3.415,-34.82518 0.0206,-14.72662 0.64887,-24.20406 1.90028,-28.66667 1.78743,-6.37406 2.0743,-6.66666 6.53615,-6.66666 h 4.66667 l -0.37403,6 c -0.20571,3.3 -0.50571,16.5 -0.66666,29.33333 -0.26261,20.9382 0.0236,24.42825 2.78804,34 7.94089,27.4948 25.40474,55.18165 41.3978,65.63125 9.90117,6.46926 23.75131,20.66213 29.29266,30.0175 2.44079,4.12076 5.81145,11.58556 7.49034,16.58844 l 3.05253,9.09614 12.50966,3.64125 c 31.09638,9.05139 91.41008,20.90994 130.50966,25.66009 82.40853,10.01171 170.71903,9.51996 248.66663,-1.38469 26.3691,-3.68896 54.4707,-8.77693 64.6667,-11.70829 8.5524,-2.45883 13.3778,-2.87215 33.3333,-2.85515 20.183,0.0172 24.7404,0.42494 33.7542,3.01994 16.5987,4.77858 25.6964,9.15364 45.0181,21.64915 45.9833,29.73775 86.6194,49.10449 138.1226,65.82785 63.1416,20.50244 137.9632,30.85197 202.4385,28.00185 40.3164,-1.78218 50.1344,-1.36842 62.6666,2.64094 30.565,9.77848 50.535,32.6047 50.1815,57.35854 -0.3054,21.38848 -5.1239,34.12957 -17.4795,46.2195 -10.4267,10.20253 -17.0425,13.36341 -24.4041,11.65982 -17.7907,-4.11697 -37.4681,4.24165 -45.0715,19.14554 -4.8129,9.43397 -2.2037,22.61238 5.4844,27.70097 3.001,1.98628 3.1027,1.9578 2.0615,-0.57731 -1.9847,-4.83269 -2.4414,-14.94254 -0.8876,-19.65056 4.4048,-13.34674 26.5125,-27.46252 34.1413,-21.79929 3.5983,2.67119 1.3873,6.14345 -5.5928,8.78319 -8.1991,3.10073 -12.165,6.24717 -15.0827,11.96638 -4.4257,8.67519 -3.1415,17.24738 3.6505,24.36695 2.6416,2.76906 4.7645,3.66667 8.6717,3.66667 4.7993,0 5.0948,-0.21707 4.0839,-3 -0.5995,-1.65 -1.0899,-6.65257 -1.0899,-11.11682 0,-6.81836 0.6296,-9.0249 3.9359,-13.79343 6.5627,-9.46542 24.3973,-17.57285 29.4435,-13.38482 3.9177,3.25134 2.2694,6.30932 -4.6373,8.60334 -14.2368,4.72872 -20.505,15.04098 -16.1327,26.54107 2.5516,6.71124 15.8495,11.27084 33.2324,11.3948 10.3288,0.0737 14.5107,-0.57247 24,-3.70813 z M 1312.9003,654.33333 c -46.8686,-49.91337 -62.9633,-116.24806 -42.8608,-176.6522 9.9767,-29.97806 23.4113,-51.33594 47.2044,-75.04396 20.5762,-20.50261 26.7648,-25.00208 31.4512,-22.86681 1.8177,0.82819 3.3049,2.37794 3.3049,3.44388 0,1.06595 -5.25,6.42145 -11.6667,11.90113 -33.2355,28.38238 -53.6282,60.17872 -63.0188,98.25951 -6.248,25.33684 -4.7345,61.39669 3.6297,86.47782 8.684,26.04045 24.7863,52.49633 42.2551,69.42491 6.2633,6.06957 7.3717,8.95142 4.534,11.78906 -3.2637,3.26373 -7.0668,1.53734 -14.833,-6.73334 z M 102.94549,359.24522 C 97.236382,355.24641 94.061808,346.93975 94.061808,336 c 0,-14.8202 6.337562,-25.33333 15.271522,-25.33333 8.93397,0 15.27153,10.51313 15.27153,25.33333 0,14.8202 -6.33756,25.33333 -15.27153,25.33333 -1.87365,0 -4.74818,-0.93965 -6.38784,-2.08811 z M 115.08398,348 c 4.21761,-8.14219 1.5636,-25.10957 -4.27825,-27.3513 -3.67526,-1.41032 -4.30446,1.58522 -1.37563,6.5492 3.50524,5.94095 2.94779,13.83251 -1.39171,19.70201 -1.55492,2.10314 -2.44305,4.44534 -1.97361,5.2049 1.71235,2.77064 6.6131,0.54021 9.0192,-4.10481 z m 126.81945,-74.1792 c -3.23448,-21.56911 5.88433,-65.55971 18.97441,-91.53554 7.08135,-14.05215 24.84759,-16.8541 37.38352,-5.89582 7.44917,6.51169 23.32888,40.13032 24.10761,51.03776 0.7114,9.96444 -3.10332,19.93329 -9.91707,25.91584 -5.58446,4.90322 -7.90053,5.03529 -9.035,0.51521 -0.80161,-3.19385 1.73795,-6.99876 4.77166,-7.14918 1.88743,-0.0936 5.38999,-11.76987 5.34439,-17.81626 -0.0527,-6.98253 -3.95973,-16.5012 -13.42643,-32.71043 -8.18789,-14.0196 -13.2349,-18.84905 -19.6982,-18.84905 -6.59425,0 -9.55183,2.93858 -14.95819,14.86206 -9.63072,21.24009 -14.77244,46.51403 -14.77971,72.6491 -0.004,12.88298 -0.14323,13.54854 -3.00375,14.31513 -4.70616,1.2612 -4.78437,1.18876 -5.76324,-5.33882 z M 1232,970.51583 c 4.0333,-1.50174 14.5333,-3.52155 23.3333,-4.48845 8.8,-0.9669 19.9,-2.68258 24.6667,-3.81262 19.8007,-4.69419 40.4852,-16.02652 54.335,-29.76837 6.3687,-6.31909 18.3675,-13.74177 70.9501,-43.8912 71.3394,-40.90409 70.7198,-40.42516 71.8103,-55.50202 0.4608,-6.36966 -0.053,-8.93673 -2.9425,-14.71761 -1.9253,-3.85123 -4.9222,-14.07709 -6.6598,-22.72414 -1.7375,-8.64706 -3.3843,-15.87589 -3.6595,-16.06408 -0.2751,-0.18819 -8.5421,-3.90118 -18.3711,-8.25108 -22.2581,-9.85055 -51.8349,-26.16124 -75.0456,-41.38533 -30.4757,-19.98925 -42.2334,-23.83088 -73.0836,-23.87882 -17.3274,-0.0269 -22.2824,0.43626 -30.6666,2.86659 -18.2408,5.28747 -70.4169,13.18637 -113.3334,17.15747 -31.9149,2.95311 -102.7137,3.99677 -137.1107,2.02117 -15.6442,-0.89853 -28.74707,-1.33065 -29.11745,-0.96027 -0.89144,0.89145 24.77345,9.14058 41.56155,13.35858 39.607,9.95125 68.4744,13.0449 118.6666,12.71718 33.0549,-0.21582 38.8614,0.0701 50.6667,2.49494 46.728,9.59801 89.1547,34.54867 101.4227,59.64556 3.5691,7.30123 3.9106,9.22286 3.9106,22 0,12.77636 -0.3417,14.69923 -3.91,22 -8.4159,17.2194 -35.7706,37.23634 -64.09,46.89823 -21.4945,7.33343 -47.8403,10.86985 -60.8933,8.17379 -15.9295,-3.29017 -33.5426,3.05101 -41.8763,15.07656 -5.2363,7.556 -6.0979,19.05431 -1.9327,25.79368 1.6174,2.61698 4.0785,5.36708 5.4691,6.11133 2.3002,1.23103 2.4098,1.04112 1.2142,-2.10366 -2.0538,-5.40202 -1.4947,-15.42385 1.1903,-21.33487 6.3298,-13.93481 30.639,-25.98189 34.1205,-16.90931 0.9843,2.56502 -3.5184,6.96092 -7.13,6.96092 -3.495,0 -11.6242,6.14874 -14.6922,11.11285 -7.0678,11.43602 0.23,28.88715 12.0802,28.88715 4.8709,0 5.0046,-0.1219 3.7506,-3.42013 -2.1647,-5.69339 -1.5228,-16.25001 1.3276,-21.83735 3.3262,-6.51989 10.8371,-12.74909 18.5349,-15.37198 7.6247,-2.598 11.3957,-2.57732 13.5966,0.0746 2.5542,3.07771 0.3002,5.75344 -7.2664,8.62565 -10.5233,3.99456 -15.4931,10.1804 -15.4931,19.28403 0,6.59765 1.8423,9.50378 8.0239,12.6574 7.6127,3.88372 13.7603,5.04161 27.3095,5.14369 8.9885,0.0677 13.8403,-0.59482 19.3333,-2.64004 z M 113.2032,782.73305 c 12.92915,-6.59595 22.75605,-23.94711 20.96464,-37.01682 -1.50804,-11.00239 6.97223,-21.68603 21.38954,-26.94704 4.27678,-1.56063 9.22384,-3.57214 10.99348,-4.47002 4.25395,-2.15836 8.10462,-8.6479 8.11082,-13.66916 0.003,-2.22016 0.87481,-5.2785 1.93792,-6.79631 1.86195,-2.65831 1.52652,-2.91404 -9.13366,-6.96335 -6.08663,-2.31202 -12.58655,-4.20368 -14.44428,-4.20368 -3.20513,0 -3.40534,0.43454 -3.91933,8.50661 -0.66374,10.42378 -4.65516,16.38947 -14.06608,21.02356 -8.68589,4.27708 -23.86854,4.36746 -31.79387,0.18926 -11.325812,-5.97092 -19.766879,-19.03572 -21.427465,-33.16472 l -0.848047,-7.21555 -5.953322,7.66375 c -8.207039,10.56498 -15.711654,23.4917 -21.694173,37.36828 -7.029755,16.30566 -7.41096,22.9385 -1.707867,29.71624 6.746485,8.01774 21.734477,11.68911 31.968361,7.83079 8.760466,-3.30283 16.128202,-14.63804 14.285827,-21.97864 -0.846758,-3.37376 2.452496,-7.27292 6.153936,-7.27292 6.35832,0 8.64577,12.23266 4.1139,22 -5.55482,11.97208 -18.364783,19.49036 -33.608726,19.72526 -5.055309,0.0779 -9.191471,0.3522 -9.191471,0.60956 0,1.66119 10.506694,4.32707 16.957175,4.30257 12.901817,-0.049 23.011802,-6.51801 27.690342,-17.71802 1.90697,-4.56511 2.55677,-5.03862 6.40407,-4.66666 3.84649,0.37188 4.31689,0.88834 4.62748,5.08063 0.70744,9.54901 -10.87401,22.36846 -23.182361,25.66045 -9.090754,2.4314 -7.114223,4.53596 4.556411,4.85154 3.32093,0.0898 7.85743,-0.93587 10.81675,-2.44561 z m 13.94909,-77.90481 c 4.86141,-2.03123 9.81893,-7.58788 11.01248,-12.34339 0.45989,-1.83233 -0.36275,-5.42903 -2.02897,-8.87099 -4.80621,-9.92831 -4.40032,-10.31508 11.41958,-10.8815 9.79666,-0.35077 12.57425,0.0614 18.71451,2.77689 8.11395,3.58838 22.58439,7.80298 33.72995,9.82405 4.09817,0.74314 40.12473,3.75875 80.05902,6.70134 42.49958,3.13162 76.20161,6.21708 81.27447,7.44076 4.80964,1.16019 17.7058,2.40739 28.9774,2.80244 30.75153,1.07779 51.33688,-3.45462 71.91561,-15.8341 7.40362,-4.45377 24.44033,-20.1623 24.44033,-22.53496 0,-0.69504 -2.55,-2.25883 -5.66667,-3.47508 -20.33892,-7.93713 -54.83415,-28.3566 -77,-45.5802 -17.13772,-13.31657 -46.10544,-43.2443 -54.18626,-55.98202 -0.16116,-0.25402 -2.88517,1.31742 -6.05337,3.49209 -3.1682,2.17467 -10.6694,6.4186 -16.66933,9.43096 -9.82,4.93029 -16.14211,6.60087 -63.33334,16.7355 -28.8334,6.19216 -57.22437,11.96666 -63.09103,12.83223 -23.64089,3.48798 -50.05302,14.74985 -77.05392,32.85504 -18.11454,12.14653 -21.4329,15.49966 -26.844446,27.12571 -7.440477,15.98497 -1.238098,36.27212 13.076916,42.77284 6.57476,2.98572 11.39169,3.18399 17.30707,0.71239 z M 2067.3333,688.80978 c 21.2851,-3.46261 28.1894,-5.67659 48,-15.39202 29.3357,-14.38659 51.1164,-30.13391 70.8453,-51.22062 39.0283,-41.71442 57.9024,-92.6617 53.6991,-144.95152 -2.0816,-25.89602 -8.4074,-46.30591 -23.528,-75.91229 -9.2565,-18.12431 -12.4709,-30.91587 -12.4709,-49.6273 0,-30.27399 10.0544,-52.92654 35.1805,-79.26144 16.5679,-17.36494 19.5363,-22.69921 19.5781,-35.1828 0.105,-31.34303 -40.0599,-50.61563 -73.0047,-35.03027 -9.2141,4.35897 -32.0169,26.08924 -43.7959,41.73584 -9.4024,12.4898 -19.7031,31.55696 -24.8682,46.03264 -6.271,17.57485 -8.2538,30.3133 -8.1976,52.66667 0.071,28.27888 3.815,43.49702 18.4024,74.79948 29.0795,62.40025 9.6965,132.46261 -49.0047,177.13418 -10.2823,7.82484 -14.339,9.98242 -26.1687,13.9182 -7.7,2.5618 -19.7,5.65527 -26.6667,6.87437 -16.3239,2.85655 -47.1606,2.86624 -63.0117,0.0198 -33.5016,-6.01597 -66.9021,-22.43888 -85.88,-42.22681 -27.3989,-28.5684 -48.4276,-66.31635 -61.1969,-109.85257 -11.5966,-39.53812 -38.2135,-73.97114 -77.7863,-100.62836 -28.0779,-18.91401 -73.6495,-34.58628 -107.2552,-36.88556 l -10.8699,-0.7437 13.3334,7.62121 c 21.5071,12.29325 33.684,21.50707 50.0832,37.8961 33.8304,33.80945 51.3893,72.36888 52.5532,115.40698 0.5919,21.88897 7.6225,43.08446 23.5675,71.05024 40.8215,71.59663 123.9403,122.10179 219.7961,133.55384 15.8381,1.8922 73.1325,0.73276 88.6666,-1.7943 z M 178.66667,219.96456 c 6.23333,-1.43396 17.46315,-3.00255 24.95515,-3.48576 7.64713,-0.49321 13.29205,-1.41215 12.86996,-2.0951 -1.00277,-1.62252 -57.52975,-39.03212 -62.18067,-41.15122 C 149.167,170.88867 144,173.33188 144,178.10808 c 0,5.02885 7.10511,25.51481 12.70806,36.64079 4.19767,8.33544 5.15565,9.41287 7.70928,8.67055 1.6038,-0.46622 8.01599,-2.0209 14.24933,-3.45486 z"
       id="path1" />
  </g>
</svg>
